<svg width="14" height="15" viewBox="0 0 14 15" fill="none" xmlns="http://www.w3.org/2000/svg">
<g clip-path="url(#clip0_38_949)">
<path d="M14.0001 3.12512V11.8751C14.0001 12.3717 13.6217 12.7501 13.1251 12.7501H12.2501V4.80906L7.00012 8.58031L1.75012 4.80906V12.7501H0.875122C0.37856 12.7501 0.00012207 12.3717 0.00012207 11.8751V3.12512C0.00012207 2.87662 0.0937471 2.65787 0.25081 2.50299C0.332565 2.42109 0.429978 2.35649 0.537239 2.31304C0.6445 2.2696 0.759412 2.2482 0.875122 2.25012H1.16693L7.00012 6.47943L12.8333 2.25012H13.1251C13.3736 2.25012 13.5924 2.34374 13.7494 2.50299C13.9065 2.65787 14.0001 2.87662 14.0001 3.12512Z" fill="white"/>
</g>
<defs>
<clipPath id="clip0_38_949">
<rect width="14" height="14" fill="white" transform="translate(0 0.5)"/>
</clipPath>
</defs>
</svg>
