<svg width="14" height="14" viewBox="0 0 14 14" fill="none" xmlns="http://www.w3.org/2000/svg">
<path d="M6.00798 13L6.00798 8V7.5C5.99009 7.5017 6.00798 7.26522 6.00798 7C6.00798 6.73478 6.00798 6 6.00798 6L6.00798 1C6.00798 0.734784 6.11333 0.48043 6.30087 0.292893C6.48841 0.105357 6.74276 0 7.00798 0C7.27319 0 7.52755 0.105357 7.71508 0.292893C7.90262 0.48043 8.00798 0.734784 8.00798 1L8.00798 6L8.00842 6.5C8.00842 6.5 8.00821 6.73478 8.00821 7C8.00821 7.26522 8.00809 7.5 8.00809 7.5L8.00784 8L8.00798 13C8.00798 13.2652 7.90262 13.5196 7.71508 13.7071C7.52755 13.8946 7.27319 14 7.00798 14C6.74276 14 6.48841 13.8946 6.30087 13.7071C6.11333 13.5196 6.00798 13.2652 6.00798 13Z" fill="#4A8B46"/>
<path d="M13 7.99654H8H7.5C7.5017 8.01442 7.26522 7.99654 7 7.99654C6.73478 7.99654 6 7.99654 6 7.99654H1C0.734784 7.99654 0.48043 7.89118 0.292893 7.70365C0.105357 7.51611 0 7.26176 0 6.99654C0 6.73132 0.105357 6.47697 0.292893 6.28943C0.48043 6.1019 0.734784 5.99654 1 5.99654H6L6.5 5.99609C6.5 5.99609 6.73478 5.9963 7 5.9963C7.26522 5.9963 7.5 5.99643 7.5 5.99643L8 5.99668L13 5.99654C13.2652 5.99654 13.5196 6.1019 13.7071 6.28943C13.8946 6.47697 14 6.73132 14 6.99654C14 7.26176 13.8946 7.51611 13.7071 7.70365C13.5196 7.89118 13.2652 7.99654 13 7.99654Z" fill="#4A8B46"/>
</svg>
