<svg width="49" height="74" viewBox="0 0 49 74" fill="none" xmlns="http://www.w3.org/2000/svg">
<path d="M44.6525 67.4066L45.0121 66.4735L45.0121 66.4735L44.6525 67.4066ZM47.7429 69.3555C48.2478 69.1316 48.4755 68.5408 48.2515 68.0359L44.602 59.8091C44.378 59.3042 43.7872 59.0765 43.2824 59.3005C42.7775 59.5245 42.5498 60.1153 42.7738 60.6201L46.0178 67.9328L38.7051 71.1769C38.2002 71.4008 37.9725 71.9916 38.1965 72.4965C38.4204 73.0013 39.0113 73.229 39.5161 73.0051L47.7429 69.3555ZM2.83588 1.49304C2.86431 0.941486 2.44024 0.471317 1.88868 0.442886C1.33713 0.414456 0.866962 0.83853 0.838532 1.39008L2.83588 1.49304ZM0.776963 2.91418C0.760816 3.46623 1.19525 3.92685 1.7473 3.94299C2.29935 3.95914 2.75996 3.5247 2.77611 2.97266L0.776963 2.91418ZM2.75555 5.92903C2.74706 5.37681 2.29252 4.93602 1.7403 4.9445C1.18808 4.95299 0.747299 5.40752 0.755782 5.95974L2.75555 5.92903ZM0.870653 9.0032C0.903832 9.55449 1.37764 9.9745 1.92892 9.94132C2.48021 9.90814 2.90022 9.43433 2.86704 8.88305L0.870653 9.0032ZM3.11072 11.8289C3.05286 11.2796 2.5607 10.8813 2.01145 10.9392C1.46221 10.997 1.06386 11.4892 1.12173 12.0384L3.11072 11.8289ZM1.50883 15.0599C1.5913 15.606 2.10085 15.9818 2.64694 15.8993C3.19303 15.8169 3.56887 15.3073 3.4864 14.7612L1.50883 15.0599ZM3.99356 17.6744C3.88663 17.1325 3.3607 16.78 2.81887 16.8869C2.27703 16.9938 1.92447 17.5198 2.0314 18.0616L3.99356 17.6744ZM2.68827 21.0365C2.81944 21.573 3.36067 21.9016 3.89716 21.7704C4.43364 21.6392 4.76221 21.098 4.63105 20.5615L2.68827 21.0365ZM5.39754 23.4169C5.24241 22.8869 4.68697 22.583 4.15692 22.7381C3.62686 22.8932 3.32293 23.4486 3.47805 23.9787L5.39754 23.4169ZM4.39902 26.8823C4.57777 27.4048 5.14629 27.6836 5.66885 27.5048C6.19141 27.3261 6.47013 26.7575 6.29138 26.235L4.39902 26.8823ZM7.31067 29.0101C7.10868 28.4961 6.52824 28.2431 6.01422 28.4451C5.5002 28.6471 5.24724 29.2275 5.44923 29.7415L7.31067 29.0101ZM6.62643 32.5508C6.85123 33.0553 7.44241 33.282 7.94688 33.0572C8.45134 32.8324 8.67806 32.2412 8.45326 31.7367L6.62643 32.5508ZM9.71686 34.4098C9.46972 33.9159 8.86899 33.7159 8.37509 33.963C7.88118 34.2102 7.68114 34.8109 7.92828 35.3048L9.71686 34.4098ZM9.35199 37.9978C9.62096 38.4802 10.23 38.6532 10.7124 38.3842C11.1948 38.1152 11.3677 37.5062 11.0988 37.0238L9.35199 37.9978ZM12.5961 39.5733C12.3058 39.1035 11.6896 38.9579 11.2198 39.2481C10.7499 39.5384 10.6043 40.1546 10.8946 40.6244L12.5961 39.5733ZM12.5529 43.1795C12.8639 43.6359 13.486 43.7538 13.9424 43.4429C14.3988 43.1319 14.5168 42.5098 14.2058 42.0534L12.5529 43.1795ZM15.9247 44.4591C15.5937 44.017 14.9669 43.927 14.5249 44.258C14.0828 44.5891 13.9928 45.2158 14.3238 45.6579L15.9247 44.4591ZM16.2038 48.0548C16.5543 48.4816 17.1844 48.5435 17.6112 48.193C18.038 47.8426 18.1 47.2124 17.7495 46.7856L16.2038 48.0548ZM19.6764 49.0282C19.3072 48.6174 18.6749 48.5838 18.2642 48.953C17.8535 49.3222 17.8198 49.9545 18.189 50.3652L19.6764 49.0282ZM20.2755 52.5843C20.6628 52.9781 21.2959 52.9834 21.6897 52.5962C22.0835 52.2089 22.0888 51.5758 21.7016 51.182L20.2755 52.5843ZM23.8211 53.2429C23.4166 52.8669 22.7839 52.89 22.4079 53.2945C22.0318 53.699 22.0549 54.3317 22.4594 54.7077L23.8211 53.2429ZM24.7364 56.7312C25.1573 57.0887 25.7884 57.0373 26.1459 56.6163C26.5034 56.1954 26.452 55.5643 26.031 55.2068L24.7364 56.7312ZM28.3269 57.0695C27.8903 56.7313 27.2622 56.811 26.924 57.2476C26.5857 57.6842 26.6654 58.3123 27.102 58.6505L28.3269 57.0695ZM29.5517 60.4618C30.003 60.7801 30.6269 60.6723 30.9452 60.2209C31.2635 59.7696 31.1557 59.1457 30.7043 58.8274L29.5517 60.4618ZM33.1585 60.4768C32.6933 60.1791 32.0749 60.3149 31.7772 60.7801C31.4795 61.2453 31.6153 61.8637 32.0805 62.1614L33.1585 60.4768ZM34.6825 63.7452C35.1606 64.0217 35.7723 63.8583 36.0488 63.3802C36.3253 62.9021 36.1619 62.2904 35.6838 62.0139L34.6825 63.7452ZM38.2751 63.436C37.7851 63.1812 37.1814 63.3719 36.9266 63.8619C36.6718 64.3519 36.8625 64.9557 37.3525 65.2104L38.2751 63.436ZM40.0855 66.5546C40.5864 66.7872 41.181 66.5697 41.4136 66.0688C41.6462 65.5679 41.4287 64.9732 40.9278 64.7406L40.0855 66.5546ZM43.6364 65.9256C43.1256 65.7156 42.5412 65.9594 42.3312 66.4702C42.1212 66.981 42.365 67.5653 42.8757 67.7754L43.6364 65.9256ZM44.9641 68.5984C45.4794 68.797 46.0582 68.5403 46.2568 68.0249C46.4554 67.5096 46.1987 66.9308 45.6833 66.7322L44.9641 68.5984ZM47.0258 67.2496C46.5105 67.051 45.9317 67.3078 45.7331 67.8231C45.5345 68.3384 45.7912 68.9172 46.3066 69.1158L47.0258 67.2496ZM1.83721 1.44156L0.838532 1.39008C0.812307 1.89884 0.7918 2.4069 0.776963 2.91418L1.77654 2.94342L2.77611 2.97266C2.79051 2.48019 2.81042 1.98696 2.83588 1.49304L1.83721 1.44156ZM1.75566 5.94438L0.755782 5.95974C0.771427 6.9782 0.809847 7.99288 0.870653 9.0032L1.86885 8.94312L2.86704 8.88305C2.80802 7.90246 2.77073 6.91759 2.75555 5.92903L1.75566 5.94438ZM2.11623 11.9337L1.12173 12.0384C1.2284 13.0509 1.35756 14.0583 1.50883 15.0599L2.49762 14.9105L3.4864 14.7612C3.3396 13.7892 3.21424 12.8115 3.11072 11.8289L2.11623 11.9337ZM3.01248 17.868L2.0314 18.0616C2.22842 19.0599 2.44752 20.0518 2.68827 21.0365L3.65966 20.799L4.63105 20.5615C4.39739 19.6058 4.18476 18.6433 3.99356 17.6744L3.01248 17.868ZM4.43779 23.6978L3.47805 23.9787C3.76367 24.9547 4.0708 25.9227 4.39902 26.8823L5.3452 26.5586L6.29138 26.235C5.97282 25.3037 5.67474 24.3641 5.39754 23.4169L4.43779 23.6978ZM6.37995 29.3758L5.44923 29.7415C5.82093 30.6875 6.21348 31.6241 6.62643 32.5508L7.53984 32.1438L8.45326 31.7367C8.05244 30.8373 7.67144 29.9282 7.31067 29.0101L6.37995 29.3758ZM8.82257 34.8573L7.92828 35.3048C8.38291 36.2134 8.85762 37.1113 9.35199 37.9978L10.2254 37.5108L11.0988 37.0238C10.6189 36.1633 10.1581 35.2917 9.71686 34.4098L8.82257 34.8573ZM11.7453 40.0989L10.8946 40.6244C11.4282 41.4884 11.9812 42.3403 12.5529 43.1795L13.3794 42.6164L14.2058 42.0534C13.6508 41.2388 13.1141 40.4119 12.5961 39.5733L11.7453 40.0989ZM15.1243 45.0585L14.3238 45.6579C14.9323 46.4704 15.5591 47.2696 16.2038 48.0548L16.9766 47.4202L17.7495 46.7856C17.1237 46.0235 16.5153 45.2478 15.9247 44.4591L15.1243 45.0585ZM18.9327 49.6967L18.189 50.3652C18.8673 51.1197 19.5629 51.8596 20.2755 52.5843L20.9886 51.8831L21.7016 51.182C21.0099 50.4787 20.3347 49.7605 19.6764 49.0282L18.9327 49.6967ZM23.1403 53.9753L22.4594 54.7077C23.2021 55.3982 23.9613 56.0729 24.7364 56.7312L25.3837 55.969L26.031 55.2068C25.2788 54.5679 24.542 53.9131 23.8211 53.2429L23.1403 53.9753ZM27.7145 57.86L27.102 58.6505C27.9034 59.2714 28.7201 59.8754 29.5517 60.4618L30.128 59.6446L30.7043 58.8274C29.8972 58.2582 29.1046 57.6721 28.3269 57.0695L27.7145 57.86ZM32.6195 61.3191L32.0805 62.1614C32.9338 62.7074 33.8012 63.2355 34.6825 63.7452L35.1832 62.8796L35.6838 62.0139C34.8285 61.5193 33.9866 61.0067 33.1585 60.4768L32.6195 61.3191ZM37.8138 64.3232L37.3525 65.2104C38.2505 65.6774 39.1616 66.1256 40.0855 66.5546L40.5066 65.6476L40.9278 64.7406C40.0311 64.3242 39.1467 63.8892 38.2751 63.436L37.8138 64.3232ZM43.2561 66.8505L42.8757 67.7754C43.3451 67.9684 43.8175 68.1565 44.2928 68.3397L44.6525 67.4066L45.0121 66.4735C44.5506 66.2957 44.092 66.113 43.6364 65.9256L43.2561 66.8505ZM44.6525 67.4066L44.2928 68.3397L44.9641 68.5984L45.3237 67.6653L45.6833 66.7322L45.0121 66.4735L44.6525 67.4066ZM46.6662 68.1827L46.3066 69.1158L46.9778 69.3745L47.3374 68.4414L47.6971 67.5083L47.0258 67.2496L46.6662 68.1827ZM44.6525 67.4066L45.0121 66.4735L45.0121 66.4735L44.6525 67.4066ZM47.7429 69.3555C48.2478 69.1316 48.4755 68.5408 48.2515 68.0359L44.602 59.8091C44.378 59.3042 43.7872 59.0765 43.2824 59.3005C42.7775 59.5245 42.5498 60.1153 42.7738 60.6201L46.0178 67.9328L38.7051 71.1769C38.2002 71.4008 37.9725 71.9916 38.1965 72.4965C38.4204 73.0013 39.0113 73.229 39.5161 73.0051L47.7429 69.3555ZM2.83588 1.49304C2.86431 0.941486 2.44024 0.471317 1.88868 0.442886C1.33713 0.414456 0.866962 0.83853 0.838532 1.39008L2.83588 1.49304ZM0.776963 2.91418C0.760816 3.46623 1.19525 3.92685 1.7473 3.94299C2.29935 3.95914 2.75996 3.5247 2.77611 2.97266L0.776963 2.91418ZM2.75555 5.92903C2.74706 5.37681 2.29252 4.93602 1.7403 4.9445C1.18808 4.95299 0.747299 5.40752 0.755782 5.95974L2.75555 5.92903ZM0.870653 9.0032C0.903832 9.55449 1.37764 9.9745 1.92892 9.94132C2.48021 9.90814 2.90022 9.43433 2.86704 8.88305L0.870653 9.0032ZM3.11072 11.8289C3.05286 11.2796 2.5607 10.8813 2.01145 10.9392C1.46221 10.997 1.06386 11.4892 1.12173 12.0384L3.11072 11.8289ZM1.50883 15.0599C1.5913 15.606 2.10085 15.9818 2.64694 15.8993C3.19303 15.8169 3.56887 15.3073 3.4864 14.7612L1.50883 15.0599ZM3.99356 17.6744C3.88663 17.1325 3.3607 16.78 2.81887 16.8869C2.27703 16.9938 1.92447 17.5198 2.0314 18.0616L3.99356 17.6744ZM2.68827 21.0365C2.81944 21.573 3.36067 21.9016 3.89716 21.7704C4.43364 21.6392 4.76221 21.098 4.63105 20.5615L2.68827 21.0365ZM5.39754 23.4169C5.24241 22.8869 4.68697 22.583 4.15692 22.7381C3.62686 22.8932 3.32293 23.4486 3.47805 23.9787L5.39754 23.4169ZM4.39902 26.8823C4.57777 27.4048 5.14629 27.6836 5.66885 27.5048C6.19141 27.3261 6.47013 26.7575 6.29138 26.235L4.39902 26.8823ZM7.31067 29.0101C7.10868 28.4961 6.52824 28.2431 6.01422 28.4451C5.5002 28.6471 5.24724 29.2275 5.44923 29.7415L7.31067 29.0101ZM6.62643 32.5508C6.85123 33.0553 7.44241 33.282 7.94688 33.0572C8.45134 32.8324 8.67806 32.2412 8.45326 31.7367L6.62643 32.5508ZM9.71686 34.4098C9.46972 33.9159 8.86899 33.7159 8.37509 33.963C7.88118 34.2102 7.68114 34.8109 7.92828 35.3048L9.71686 34.4098ZM9.35199 37.9978C9.62096 38.4802 10.23 38.6532 10.7124 38.3842C11.1948 38.1152 11.3677 37.5062 11.0988 37.0238L9.35199 37.9978ZM12.5961 39.5733C12.3058 39.1035 11.6896 38.9579 11.2198 39.2481C10.7499 39.5384 10.6043 40.1546 10.8946 40.6244L12.5961 39.5733ZM12.5529 43.1795C12.8639 43.6359 13.486 43.7538 13.9424 43.4429C14.3988 43.1319 14.5168 42.5098 14.2058 42.0534L12.5529 43.1795ZM15.9247 44.4591C15.5937 44.017 14.9669 43.927 14.5249 44.258C14.0828 44.5891 13.9928 45.2158 14.3238 45.6579L15.9247 44.4591ZM16.2038 48.0548C16.5543 48.4816 17.1844 48.5435 17.6112 48.193C18.038 47.8426 18.1 47.2124 17.7495 46.7856L16.2038 48.0548ZM19.6764 49.0282C19.3072 48.6174 18.6749 48.5838 18.2642 48.953C17.8535 49.3222 17.8198 49.9545 18.189 50.3652L19.6764 49.0282ZM20.2755 52.5843C20.6628 52.9781 21.2959 52.9834 21.6897 52.5962C22.0835 52.2089 22.0888 51.5758 21.7016 51.182L20.2755 52.5843ZM23.8211 53.2429C23.4166 52.8669 22.7839 52.89 22.4079 53.2945C22.0318 53.699 22.0549 54.3317 22.4594 54.7077L23.8211 53.2429ZM24.7364 56.7312C25.1573 57.0887 25.7884 57.0373 26.1459 56.6163C26.5034 56.1954 26.452 55.5643 26.031 55.2068L24.7364 56.7312ZM28.3269 57.0695C27.8903 56.7313 27.2622 56.811 26.924 57.2476C26.5857 57.6842 26.6654 58.3123 27.102 58.6505L28.3269 57.0695ZM29.5517 60.4618C30.003 60.7801 30.6269 60.6723 30.9452 60.2209C31.2635 59.7696 31.1557 59.1457 30.7043 58.8274L29.5517 60.4618ZM33.1585 60.4768C32.6933 60.1791 32.0749 60.3149 31.7772 60.7801C31.4795 61.2453 31.6153 61.8637 32.0805 62.1614L33.1585 60.4768ZM34.6825 63.7452C35.1606 64.0217 35.7723 63.8583 36.0488 63.3802C36.3253 62.9021 36.1619 62.2904 35.6838 62.0139L34.6825 63.7452ZM38.2751 63.436C37.7851 63.1812 37.1814 63.3719 36.9266 63.8619C36.6718 64.3519 36.8625 64.9557 37.3525 65.2104L38.2751 63.436ZM40.0855 66.5546C40.5864 66.7872 41.181 66.5697 41.4136 66.0688C41.6462 65.5679 41.4287 64.9732 40.9278 64.7406L40.0855 66.5546ZM43.6364 65.9256C43.1256 65.7156 42.5412 65.9594 42.3312 66.4702C42.1212 66.981 42.365 67.5653 42.8757 67.7754L43.6364 65.9256ZM44.9641 68.5984C45.4794 68.797 46.0582 68.5403 46.2568 68.0249C46.4554 67.5096 46.1987 66.9308 45.6833 66.7322L44.9641 68.5984ZM47.0258 67.2496C46.5105 67.051 45.9317 67.3078 45.7331 67.8231C45.5345 68.3384 45.7912 68.9172 46.3066 69.1158L47.0258 67.2496ZM1.83721 1.44156L0.838532 1.39008C0.812307 1.89884 0.7918 2.4069 0.776963 2.91418L1.77654 2.94342L2.77611 2.97266C2.79051 2.48019 2.81042 1.98696 2.83588 1.49304L1.83721 1.44156ZM1.75566 5.94438L0.755782 5.95974C0.771427 6.9782 0.809847 7.99288 0.870653 9.0032L1.86885 8.94312L2.86704 8.88305C2.80802 7.90246 2.77073 6.91759 2.75555 5.92903L1.75566 5.94438ZM2.11623 11.9337L1.12173 12.0384C1.2284 13.0509 1.35756 14.0583 1.50883 15.0599L2.49762 14.9105L3.4864 14.7612C3.3396 13.7892 3.21424 12.8115 3.11072 11.8289L2.11623 11.9337ZM3.01248 17.868L2.0314 18.0616C2.22842 19.0599 2.44752 20.0518 2.68827 21.0365L3.65966 20.799L4.63105 20.5615C4.39739 19.6058 4.18476 18.6433 3.99356 17.6744L3.01248 17.868ZM4.43779 23.6978L3.47805 23.9787C3.76367 24.9547 4.0708 25.9227 4.39902 26.8823L5.3452 26.5586L6.29138 26.235C5.97282 25.3037 5.67474 24.3641 5.39754 23.4169L4.43779 23.6978ZM6.37995 29.3758L5.44923 29.7415C5.82093 30.6875 6.21348 31.6241 6.62643 32.5508L7.53984 32.1438L8.45326 31.7367C8.05244 30.8373 7.67144 29.9282 7.31067 29.0101L6.37995 29.3758ZM8.82257 34.8573L7.92828 35.3048C8.38291 36.2134 8.85762 37.1113 9.35199 37.9978L10.2254 37.5108L11.0988 37.0238C10.6189 36.1633 10.1581 35.2917 9.71686 34.4098L8.82257 34.8573ZM11.7453 40.0989L10.8946 40.6244C11.4282 41.4884 11.9812 42.3403 12.5529 43.1795L13.3794 42.6164L14.2058 42.0534C13.6508 41.2388 13.1141 40.4119 12.5961 39.5733L11.7453 40.0989ZM15.1243 45.0585L14.3238 45.6579C14.9323 46.4704 15.5591 47.2696 16.2038 48.0548L16.9766 47.4202L17.7495 46.7856C17.1237 46.0235 16.5153 45.2478 15.9247 44.4591L15.1243 45.0585ZM18.9327 49.6967L18.189 50.3652C18.8673 51.1197 19.5629 51.8596 20.2755 52.5843L20.9886 51.8831L21.7016 51.182C21.0099 50.4787 20.3347 49.7605 19.6764 49.0282L18.9327 49.6967ZM23.1403 53.9753L22.4594 54.7077C23.2021 55.3982 23.9613 56.0729 24.7364 56.7312L25.3837 55.969L26.031 55.2068C25.2788 54.5679 24.542 53.9131 23.8211 53.2429L23.1403 53.9753ZM27.7145 57.86L27.102 58.6505C27.9034 59.2714 28.7201 59.8754 29.5517 60.4618L30.128 59.6446L30.7043 58.8274C29.8972 58.2582 29.1046 57.6721 28.3269 57.0695L27.7145 57.86ZM32.6195 61.3191L32.0805 62.1614C32.9338 62.7074 33.8012 63.2355 34.6825 63.7452L35.1832 62.8796L35.6838 62.0139C34.8285 61.5193 33.9866 61.0067 33.1585 60.4768L32.6195 61.3191ZM37.8138 64.3232L37.3525 65.2104C38.2505 65.6774 39.1616 66.1256 40.0855 66.5546L40.5066 65.6476L40.9278 64.7406C40.0311 64.3242 39.1467 63.8892 38.2751 63.436L37.8138 64.3232ZM43.2561 66.8505L42.8757 67.7754C43.3451 67.9684 43.8175 68.1565 44.2928 68.3397L44.6525 67.4066L45.0121 66.4735C44.5506 66.2957 44.092 66.113 43.6364 65.9256L43.2561 66.8505ZM44.6525 67.4066L44.2928 68.3397L44.9641 68.5984L45.3237 67.6653L45.6833 66.7322L45.0121 66.4735L44.6525 67.4066ZM46.6662 68.1827L46.3066 69.1158L46.9778 69.3745L47.3374 68.4414L47.6971 67.5083L47.0258 67.2496L46.6662 68.1827Z" fill="white"/>
</svg>
